# xmcd
#
# Track frame offsets: 
#        182
#        27530
#        49255
#        70500
#        86737
#        90060
#        105300
#        122445
#        147415
#        188207
#        211880
#        230660
#
# Disc length: 3346 seconds
#
# Revision: 0
# Processed by: cddbd v1.5.2PL0 Copyright (c) Steve Scherf et al.
# Submitted via: ExactAudioCopy v0.99pb4
#
DISCID=9a0d100c
DTITLE=Steve Marriott - All Or Nothing Live
DYEAR=1997
DGENRE=Blues
TTITLE0=Watch Your Step
TTITLE1=This Train Stops At Memphis
TTITLE2=Watcha Gonna Do About It
TTITLE3=Talkin'Bout You
TTITLE4=What A Silly Song
TTITLE5=Itchycoo Park
TTITLE6=Mr. Pitiful
TTITLE7=Hallelujah I Love Her So
TTITLE8=Five Long Years
TTITLE9=All Or Nothing
TTITLE10=This Old Fool
TTITLE11=Natural Born Boogie
EXTD=
EXTT0=
EXTT1=
EXTT2=
EXTT3=
EXTT4=
EXTT5=
EXTT6=
EXTT7=
EXTT8=
EXTT9=
EXTT10=
EXTT11=
PLAYORDER=
